<svg width="22.000000" height="18.000000" viewBox="0 0 22 18" fill="none" xmlns="http://www.w3.org/2000/svg" xmlns:xlink="http://www.w3.org/1999/xlink">
	<desc>
			Created with Pixso.
	</desc>
	<defs/>
	<path d="M0.4375 2L13.5625 2C13.804 2 14 1.55301 14 1C14 0.446991 13.804 0 13.5625 0L0.4375 0C0.195984 0 0 0.446991 0 1C0 1.55301 0.195557 2 0.4375 2Z" fill="#FFFFFF" fill-opacity="1.000000" fill-rule="nonzero"/>
	<path d="M7.46875 18L21.5312 18C21.79 18 22 17.553 22 17C22 16.447 21.79 16 21.5312 16L7.46875 16C7.21002 16 7 16.447 7 17C7 17.553 7.20953 18 7.46875 18Z" fill="#FFFFFF" fill-opacity="1.000000" fill-rule="nonzero"/>
	<path d="M0.6875 10L21.3125 10C21.692 10 22 9.55301 22 9C22 8.44699 21.692 8 21.3125 8L0.6875 8C0.307983 8 0 8.44699 0 9C0 9.55301 0.307312 10 0.6875 10Z" fill="#FFFFFF" fill-opacity="1.000000" fill-rule="nonzero"/>
</svg>
